<svg width="30" height="31" viewBox="0 0 30 31" fill="none" xmlns="http://www.w3.org/2000/svg">
<path d="M13.6621 8.44922H6.63086C6.38811 8.44922 6.19141 8.64598 6.19141 8.88867C6.19141 9.13137 6.38811 9.32812 6.63086 9.32812H13.6621C13.9049 9.32812 14.1016 9.13137 14.1016 8.88867C14.1016 8.64598 13.9049 8.44922 13.6621 8.44922Z" fill="#F1EEEC"/>
<path d="M8.46967 19.7613C7.4584 19.5767 6.49231 19.2271 5.59805 18.7224C5.43164 18.6284 5.22357 18.6528 5.08336 18.7828C4.29598 19.5123 3.271 19.9141 2.19727 19.9141C1.99957 19.9141 1.80375 19.9007 1.61051 19.874C2.46106 19.2808 3.12229 18.4367 3.48861 17.4504C3.54674 17.2938 3.51111 17.1178 3.39668 16.9963C1.77305 15.2709 0.878906 13.0159 0.878906 10.6465C0.878906 5.53631 5.03631 1.37891 10.1465 1.37891C14.6251 1.37891 18.4588 4.57127 19.2624 8.96967C19.306 9.20838 19.5352 9.36658 19.7737 9.32299C20.0125 9.27934 20.1706 9.05047 20.127 8.8117C19.2471 3.99559 15.0497 0.5 10.1465 0.5C4.55174 0.5 0 5.05168 0 10.6465C0 13.1458 0.908789 15.5291 2.56488 17.3891C2.11934 18.3918 1.2968 19.1912 0.274512 19.6051C0.108633 19.6723 0 19.8334 0 20.0124C0 20.1915 0.108633 20.3526 0.27457 20.4198C0.886231 20.6674 1.53311 20.7929 2.19727 20.7929C3.38643 20.7929 4.52607 20.3846 5.44014 19.637C6.34207 20.1101 7.30658 20.4424 8.31188 20.6259C8.55035 20.6695 8.77945 20.5113 8.82311 20.2725C8.86664 20.0338 8.70844 19.8049 8.46967 19.7613Z" fill="#F1EEEC"/>
<path d="M6.63086 11.9648C6.38811 11.9648 6.19141 12.1616 6.19141 12.4043C6.19141 12.647 6.38811 12.8438 6.63086 12.8438H11.6003C11.8431 12.8438 12.0398 12.647 12.0398 12.4043C12.0398 12.1616 11.8431 11.9648 11.6003 11.9648H6.63086Z" fill="#F1EEEC"/>
<path d="M14.1016 10.6465C14.1016 10.4038 13.9049 10.207 13.6621 10.207H6.63086C6.38811 10.207 6.19141 10.4038 6.19141 10.6465C6.19141 10.8892 6.38811 11.0859 6.63086 11.0859H13.6621C13.9049 11.0859 14.1016 10.8892 14.1016 10.6465Z" fill="#F1EEEC"/>
<path d="M22.0508 15.9971C21.241 15.9971 20.4749 16.2683 19.8535 16.7683C19.2322 16.2684 18.4661 15.9971 17.6563 15.9971C15.7177 15.9971 14.1406 17.5742 14.1406 19.5127C14.1406 21.3358 15.1054 23.1271 16.9306 24.693C18.2794 25.85 19.6119 26.4767 19.6679 26.5029C19.7268 26.5302 19.7902 26.5439 19.8535 26.5439C19.9169 26.5439 19.9803 26.5302 20.0391 26.5029C20.0951 26.4767 21.4276 25.85 22.7764 24.693C24.6016 23.1271 25.5664 21.3358 25.5664 19.5127C25.5664 17.5742 23.9893 15.9971 22.0508 15.9971ZM19.8535 25.6127C18.9448 25.1383 15.0195 22.8929 15.0195 19.5127C15.0195 18.0588 16.2024 16.876 17.6563 16.876C18.3703 16.876 19.0392 17.1573 19.5396 17.6682C19.6222 17.7526 19.7354 17.8002 19.8535 17.8002C19.9716 17.8002 20.0848 17.7526 20.1674 17.6683C20.6679 17.1574 21.3368 16.876 22.0508 16.876C23.5047 16.876 24.6875 18.0589 24.6875 19.5128C24.6875 22.8931 20.7617 25.1387 19.8535 25.6127Z" fill="#F1EEEC"/>
<path d="M29.7254 29.3122C28.7032 28.8983 27.8806 28.0989 27.435 27.0962C29.0912 25.2361 30 22.8529 30 20.3535C30 14.7588 25.4482 10.207 19.8535 10.207C14.2587 10.207 9.70703 14.7588 9.70703 20.3535C9.70703 25.9483 14.2587 30.5 19.8535 30.5C21.4945 30.5 23.1148 30.1011 24.5598 29.344C25.4739 30.0917 26.6136 30.5 27.8027 30.5C28.4669 30.5 29.1138 30.3745 29.7254 30.1268C29.8913 30.0596 30 29.8985 30 29.7195C30 29.5405 29.8913 29.3793 29.7254 29.3122ZM27.8027 29.6211C26.729 29.6211 25.7041 29.2194 24.9166 28.4898C24.8333 28.4126 24.7261 28.3727 24.6178 28.3727C24.5438 28.3727 24.4694 28.3913 24.4019 28.4295C23.0208 29.209 21.448 29.6211 19.8535 29.6211C14.7433 29.6211 10.5859 25.4637 10.5859 20.3535C10.5859 15.2433 14.7433 11.0859 19.8535 11.0859C24.9637 11.086 29.1211 15.2434 29.1211 20.3535C29.1211 22.7229 28.2269 24.978 26.6032 26.7032C26.4888 26.8249 26.4531 27.0009 26.5114 27.1574C26.8777 28.1437 27.5389 28.9878 28.3895 29.581C28.1962 29.6077 28.0004 29.6211 27.8027 29.6211Z" fill="#F1EEEC"/>
</svg>
