<svg width="48" height="48" viewBox="0 0 48 48" fill="none" xmlns="http://www.w3.org/2000/svg">
<circle cx="24" cy="24" r="20" fill="#D67E0D" fill-opacity="0.1"/>
<path d="M24 8C16.268 8 10 14.268 10 22s6.268 14 14 14 14-6.268 14-14S31.732 8 24 8zm0 25c-6.065 0-11-4.935-11-11s4.935-11 11-11 11 4.935 11 11-4.935 11-11 11z" fill="#D67E0D"/>
<path d="M24 14c-4.411 0-8 3.589-8 8s3.589 8 8 8 8-3.589 8-8-3.589-8-8-8zm0 14c-3.309 0-6-2.691-6-6s2.691-6 6-6 6 2.691 6 6-2.691 6-6 6z" fill="#D67E0D"/>
<circle cx="24" cy="22" r="3" fill="#D67E0D"/>
</svg>
