<svg width="30" height="31" viewBox="0 0 30 31" fill="none" xmlns="http://www.w3.org/2000/svg">
<path d="M25.6517 4.42995C23.1172 1.89551 19.7474 0.499858 16.1633 0.5C15.576 0.5 15.1001 0.97604 15.1001 1.56322C15.1001 2.1504 15.5761 2.62644 16.1633 2.62644C19.1795 2.6263 22.0152 3.80081 24.148 5.93363C26.2809 8.06645 27.4554 10.9023 27.4553 13.9186C27.4553 14.5057 27.9312 14.9818 28.5185 14.9818C29.1057 14.9818 29.5817 14.5057 29.5817 13.9187C29.5819 10.3342 28.1862 6.96439 25.6517 4.42995Z" fill="#F1EEEC"/>
<path d="M21.278 13.9187C21.278 14.5059 21.754 14.9819 22.3413 14.9818C22.9285 14.9818 23.4044 14.5057 23.4044 13.9186C23.4041 9.92651 20.1558 6.6783 16.1635 6.67773C16.1633 6.67773 16.1636 6.67773 16.1635 6.67773C15.5763 6.67773 15.1002 7.15363 15.1001 7.74081C15.1001 8.328 15.576 8.80404 16.1632 8.80418C18.9833 8.8046 21.2777 11.0989 21.278 13.9187Z" fill="#F1EEEC"/>
<path d="M18.9253 19.3398C17.3046 19.2558 16.479 20.4611 16.0831 21.0401C15.7515 21.5247 15.8757 22.1864 16.3603 22.5179C16.845 22.8495 17.5066 22.7253 17.8382 22.2407C18.306 21.5566 18.518 21.449 18.8055 21.4627C19.7256 21.5708 23.3498 24.2266 23.7127 25.0571C23.8037 25.3016 23.8003 25.5413 23.7027 25.8329C23.3222 26.9622 22.6923 27.7558 21.8809 28.1278C21.11 28.4812 20.1648 28.4492 19.1482 28.0355C15.3523 26.4883 12.0359 24.3291 9.29133 21.6177C9.2902 21.6166 9.28906 21.6156 9.28807 21.6145C6.58239 18.8727 4.42716 15.5605 2.88252 11.7703C2.46871 10.7529 2.43667 9.80762 2.79009 9.03686C3.16207 8.22541 3.95566 7.59556 5.08395 7.21549C5.37655 7.11739 5.61585 7.11427 5.85812 7.20443C6.69154 7.56862 9.34719 11.1926 9.45436 12.1025C9.46967 12.4008 9.36122 12.6125 8.67778 13.0795C8.19295 13.4107 8.06834 14.0723 8.39964 14.5571C8.7308 15.0419 9.39227 15.1664 9.87724 14.8352C10.4565 14.4397 11.6615 13.6164 11.5778 11.9902C11.4857 10.2916 8.18147 5.79332 6.60266 5.2128C5.90051 4.95111 5.16192 4.94657 4.40661 5.20005C2.70716 5.77234 1.47977 6.79275 0.85715 8.15084C0.25324 9.46839 0.272378 10.997 0.913146 12.5723C2.56624 16.6284 4.8791 20.1774 7.78737 23.1211C7.79446 23.1284 7.80169 23.1355 7.80906 23.1424C10.7506 26.0453 14.2956 28.3539 18.3463 30.005C19.1575 30.3349 19.9563 30.5 20.7203 30.5C21.4396 30.5 22.1282 30.3537 22.767 30.0609C24.1253 29.4384 25.1455 28.2111 25.7182 26.5106C25.9712 25.7567 25.967 25.0184 25.7073 24.3195C25.1248 22.7364 20.6266 19.4322 18.9253 19.3398Z" fill="#F1EEEC"/>
</svg>
