<?xml version="1.0" encoding="UTF-8"?>
<svg xmlns="http://www.w3.org/2000/svg" xmlns:xlink="http://www.w3.org/1999/xlink" width="60px" height="60px" viewBox="0 0 60 60" version="1.1">
<g id="surface1">
<path style=" stroke:none;fill-rule:nonzero;fill:rgb(24 123 113);fill-opacity:1;" d="M 30 1 C 13.984375 1 1 13.984375 1 30 C 1 46.015625 13.984375 59 30 59 C 46.015625 59 59 46.015625 59 30 C 59 13.984375 46.015625 1 30 1 Z M 27 42 L 21 42 L 21 18 L 27 18 Z M 39 42 L 33 42 L 33 18 L 39 18 Z M 39 42 "/>
<path style=" stroke:none;fill-rule:nonzero;fill:rgb(24 123 113);fill-opacity:1;" d="M 30 0 C 13.433594 0 0 13.433594 0 30 C 0 46.570312 13.433594 60 30 60 C 46.570312 60 60 46.570312 60 30 C 59.980469 13.4375 46.5625 0.0195312 30 0 Z M 30 58 C 14.535156 58 2 45.464844 2 30 C 2 14.535156 14.535156 2 30 2 C 45.464844 2 58 14.535156 58 30 C 57.984375 45.457031 45.457031 57.984375 30 58 Z M 30 58 "/>
<path style=" stroke:none;fill-rule:nonzero;fill:rgb(24 123 113);fill-opacity:1;" d="M 27 17 L 21 17 C 20.449219 17 20 17.449219 20 18 L 20 42 C 20 42.550781 20.449219 43 21 43 L 27 43 C 27.550781 43 28 42.550781 28 42 L 28 18 C 28 17.449219 27.550781 17 27 17 Z M 26 41 L 22 41 L 22 19 L 26 19 Z M 26 41 "/>
<path style=" stroke:none;fill-rule:nonzero;fill:rgb(24 123 113);fill-opacity:1;" d="M 39 17 L 33 17 C 32.449219 17 32 17.449219 32 18 L 32 42 C 32 42.550781 32.449219 43 33 43 L 39 43 C 39.550781 43 40 42.550781 40 42 L 40 18 C 40 17.449219 39.550781 17 39 17 Z M 38 41 L 34 41 L 34 19 L 38 19 Z M 38 41 "/>
</g>
</svg>
